<svg width="296" height="81" viewBox="0 0 296 81" fill="none" xmlns="http://www.w3.org/2000/svg">
<path fill-rule="evenodd" clip-rule="evenodd" d="M6.31 7.313C6.30516 7.9348 6.06465 8.5316 5.637 8.983C5.40135 9.22516 5.1208 9.41911 4.811 9.554C4.485 9.7 4.119 9.774 3.715 9.774C3.27003 9.7755 2.82908 9.68988 2.417 9.522C2.01439 9.36125 1.65238 9.11331 1.357 8.79601C1.1 8.48816 0.905379 8.13322 0.783996 7.75101C0.647559 7.33815 0.57933 6.90581 0.582 6.47101C0.582 5.619 0.732001 4.83101 1.037 4.11101C1.34003 3.39256 1.78062 2.74033 2.334 2.19101C2.581 1.94301 2.861 1.714 3.177 1.5C3.491 1.28801 3.789 1.10701 4.07 0.960007C4.35 0.81601 4.59 0.697998 4.794 0.610001L4.85068 0.584473C5.01953 0.508438 5.12537 0.46077 5.166 0.440002L6.513 2.42801C6.265 2.51801 5.991 2.636 5.687 2.78101C5.384 2.92801 5.097 3.10701 4.83 3.319C4.56245 3.53099 4.33372 3.7878 4.154 4.078C3.975 4.37 3.874 4.70801 3.852 5.09C4.502 5.09 5.076 5.28 5.57 5.66301C6.063 6.045 6.31 6.593 6.31 7.313ZM13.976 8.188C14.089 7.897 14.146 7.604 14.146 7.313H14.147C14.147 6.59399 13.899 6.045 13.407 5.664C12.913 5.282 12.339 5.092 11.689 5.092C11.712 4.709 11.812 4.371 11.992 4.07899C12.172 3.787 12.395 3.534 12.665 3.321C12.935 3.10699 13.222 2.92799 13.525 2.782C13.7943 2.65179 14.0696 2.53433 14.35 2.43001L13.002 0.442001C12.958 0.464005 12.835 0.522003 12.632 0.609009C12.429 0.697998 12.187 0.817001 11.907 0.960999C11.5989 1.12315 11.3007 1.30348 11.014 1.50101C10.7106 1.70253 10.4278 1.93367 10.17 2.19099C9.61695 2.74059 9.17639 3.39276 8.873 4.11101C8.57 4.83099 8.418 5.619 8.418 6.47101C8.41585 6.90578 8.48406 7.33803 8.62 7.75101C8.74213 8.1329 8.93667 8.4877 9.193 8.79601C9.48824 9.11324 9.85031 9.36087 10.253 9.521C10.6648 9.68851 11.1054 9.77411 11.55 9.77299C12.2723 9.783 12.9672 9.4968 13.473 8.981C13.6917 8.7527 13.8627 8.48312 13.976 8.188ZM270.869 66.029C270.869 65.735 270.926 65.443 271.039 65.152C271.151 64.859 271.319 64.596 271.542 64.36C271.778 64.1171 272.059 63.9228 272.369 63.788C272.694 63.642 273.059 63.568 273.464 63.568C273.914 63.568 274.346 63.652 274.762 63.82C275.176 63.99 275.532 64.23 275.823 64.547C276.07 64.839 276.26 65.187 276.395 65.591C276.531 65.995 276.597 66.421 276.597 66.872C276.597 67.722 276.446 68.511 276.142 69.23C275.839 69.9483 275.399 70.6006 274.846 71.15C274.588 71.4065 274.305 71.6379 274.003 71.841C273.716 72.0376 273.418 72.2179 273.11 72.381C272.83 72.525 272.59 72.645 272.384 72.733C272.322 72.7598 272.26 72.7874 272.198 72.8158L272.141 72.8419L272.112 72.8557C272.079 72.8712 272.047 72.887 272.014 72.903L270.664 70.913C270.914 70.823 271.188 70.706 271.492 70.561C271.795 70.415 272.082 70.235 272.349 70.022C272.617 69.81 272.846 69.5528 273.025 69.262C273.205 68.97 273.305 68.633 273.329 68.252C272.679 68.252 272.104 68.062 271.609 67.678C271.116 67.298 270.869 66.747 270.869 66.029ZM278.706 66.029C278.706 65.736 278.763 65.443 278.873 65.152C278.986 64.859 279.155 64.596 279.379 64.36C279.606 64.125 279.879 63.932 280.204 63.788C280.531 63.643 280.894 63.568 281.3 63.568C281.75 63.568 282.183 63.652 282.597 63.82C283.014 63.99 283.367 64.23 283.658 64.547C283.908 64.839 284.098 65.187 284.232 65.591C284.366 65.996 284.434 66.422 284.434 66.872C284.443 67.6806 284.288 68.4827 283.979 69.23C283.675 69.9481 283.234 70.6002 282.681 71.15C282.422 71.407 282.139 71.6384 281.836 71.841C281.55 72.04 281.252 72.2204 280.943 72.381C280.663 72.526 280.423 72.645 280.218 72.733C280.094 72.7871 279.97 72.8438 279.848 72.903L278.5 70.913C278.747 70.824 279.02 70.706 279.325 70.561C279.629 70.415 279.915 70.235 280.185 70.022C280.453 69.808 280.679 69.555 280.858 69.262C281.039 68.97 281.14 68.634 281.162 68.252C280.54 68.2628 279.934 68.0602 279.443 67.678C278.953 67.298 278.706 66.747 278.706 66.03V66.029ZM255.475 64.187H251.66L263.541 43.551H267.317L255.475 64.187ZM251.479 65.675C250.243 65.6755 249.298 66.6553 249.298 67.893C249.298 69.131 250.244 70.073 251.479 70.073C252.711 70.073 253.696 69.129 253.696 67.893C253.696 66.657 252.711 65.675 251.479 65.675ZM226.217 58.26L225.127 60.148C225.962 62.619 229.266 61.239 230.396 59.277L232.211 56.153C233.556 53.863 230.577 52.192 226.217 58.26ZM250.219 63.128C250.001 62.548 249.347 61.965 248.802 61.821L248.547 62.113C247.218 63.6725 245.691 65.0521 244.005 66.217C244.475 64.8058 244.722 63.0979 244.988 61.2515C245.4 58.3931 245.86 55.2027 247.273 52.267L244.438 50.74C244.16 51.1222 243.822 51.5935 243.437 52.1325L243.436 52.1331L243.436 52.1334C241.659 54.6165 238.852 58.5373 236.046 61.821C236.052 61.831 236.062 61.839 236.067 61.846C236.061 61.8433 236.054 61.8391 236.047 61.8347C236.039 61.8293 236.03 61.8238 236.022 61.821L235.769 62.113C233.042 65.273 230.392 67.779 228.719 67.779C227.885 67.779 227.085 66.943 227.085 65.236V63.674C229.737 64.001 232.535 62.256 234.315 59.17L235.331 57.427C238.853 51.397 233.114 49.397 229.263 52.923L234.638 43.586H230.859L220.084 62.281C219.877 62.0975 219.645 61.9437 219.395 61.824L219.139 62.116C216.416 65.276 212.928 67.782 210.276 67.782C207.951 67.782 206.571 66.329 208.315 63.278L212.199 56.521C214.379 52.779 218.231 53.397 215.977 57.321L215.433 58.265H218.523L219.068 57.321C221.102 53.833 219.139 51.217 216.053 51.217C213.002 51.217 210.566 52.817 208.968 55.577L205.25 61.957C205.23 61.9454 205.21 61.9333 205.19 61.9212C205.131 61.8852 205.072 61.8489 205.017 61.825L204.762 62.117C202.038 65.277 199.387 67.783 197.715 67.783C196.879 67.783 196.409 67.203 197.279 65.713L205.345 51.58H201.565L194.846 63.314C191.973 65.929 189.761 67.382 189.032 67.056C188.156 66.6859 188.905 65.4397 189.396 64.6235L189.444 64.5436L189.481 64.4816L189.505 64.441L196.879 51.58H193.101L185.763 64.275C185.257 64.7359 184.454 65.1665 183.73 65.5552C183.286 65.793 182.872 66.0151 182.573 66.219C183.044 64.8074 183.29 63.099 183.557 61.252V61.2517L183.557 61.2513C183.969 58.3935 184.43 55.2039 185.842 52.269L183.01 50.742C181.447 52.885 172.727 64.44 169.312 68.435C169.637 68.907 170.184 69.38 170.728 69.743C172.871 67.273 180.066 58.009 181.41 56.229C180.909 57.5473 180.667 59.2187 180.43 60.8569C179.961 64.0936 179.511 67.201 177.122 67.201C175.852 67.201 175.342 65.819 175.342 65.819L172.981 67.055C172.981 67.055 173.671 70.105 177.121 70.105C177.455 70.105 177.757 70.0749 178.085 70.0422L178.085 70.0421L178.177 70.033C178.184 70.033 178.19 70.0317 178.197 70.0296C178.203 70.0277 178.209 70.0251 178.215 70.0223C178.22 70.02 178.225 70.0176 178.23 70.0151L178.23 70.0149C178.241 70.0095 178.251 70.0041 178.262 70.0007L178.267 69.9993L178.27 69.9985C178.275 69.9975 178.279 69.997 178.283 69.997C180.203 69.743 182.861 68.859 184.643 67.627C184.631 69.164 185.559 70.105 187.143 70.105C189.211 70.105 191.538 68.216 193.353 66.473C192.992 68.508 194.188 70.105 196.588 70.105C198.934 70.105 201.547 68.219 204.025 65.742C204.059 68.252 205.993 70.105 209.151 70.105C212.217 70.105 215.265 68.392 217.892 66.089L215.787 69.743H219.603L223.926 62.223V65.237C223.926 68.469 224.543 70.105 227.596 70.105C230.719 70.105 234.317 66.764 237.441 63.13C237.439 63.1269 237.437 63.1236 237.434 63.1203C237.428 63.1129 237.422 63.1049 237.421 63.096C237.435 63.108 237.452 63.119 237.468 63.13C239.181 61.1561 240.733 59.0652 241.971 57.396C242.282 56.9765 242.574 56.5837 242.843 56.226C242.343 57.5438 242.102 59.2142 241.865 60.8516C241.396 64.0896 240.946 67.199 238.556 67.199C237.286 67.199 236.776 65.817 236.776 65.817L234.414 67.053C234.414 67.053 235.105 70.103 238.556 70.103C238.884 70.103 239.182 70.0735 239.508 70.0412L239.612 70.031C239.628 70.031 239.643 70.0237 239.659 70.0158C239.678 70.0064 239.697 69.996 239.717 69.996C243.57 69.484 247.385 66.434 250.218 63.126L250.219 63.128ZM135.445 62.042H135.628L138.388 57.32C140.676 53.395 137.044 51.615 134.391 56.12L132.575 59.208L129.705 64.185C127.452 68.109 131.776 68.689 133.555 65.639L133.592 65.566C133.374 65.204 133.229 64.769 133.229 64.297C133.229 63.059 134.21 62.042 135.445 62.042ZM110.198 76.173C109.398 77.59 108.126 77.373 108.126 76.357C108.126 75.377 109.035 74.251 111.941 73.123L110.198 76.173ZM75.353 67.746C76.915 67.746 79.168 66.038 81.456 62.443L84.397 57.283C86.251 53.867 82.219 52.96 80.184 56.482L74.917 65.675C74.046 67.166 74.518 67.746 75.353 67.746ZM69.402 47.693C70.528 45.766 71.764 44.931 72.817 44.931C74.235 44.931 74.888 45.875 74.888 47.256C74.888 50.78 70.524 58.089 64.716 57.137H63.953L69.402 47.693ZM161.925 62.079L162.179 61.787L162.18 61.788C162.69 62.006 163.343 62.588 163.598 63.099C160.472 66.732 156.878 70.074 153.752 70.074C150.699 70.074 149.574 67.497 151.172 64.698L156.076 56.16C157.712 53.362 155.132 52.419 149.355 59.649L143.579 69.712H139.764L142.304 65.318C140.618 66.248 138.75 66.768 137.37 66.768H136.535C132.297 72.126 125.269 70.923 125.789 65.646C122.537 68.865 119.423 70.824 116.264 71.818L113.358 76.796C110.636 81.446 105.076 80.682 105.076 77.049C105.076 74.217 108.273 72.108 113.396 70.584L115.467 67.024C113.758 68.548 111.689 70.074 109.872 70.074C107.99 70.074 107.031 68.742 107.484 66.664C105.31 68.654 103.077 70.074 101.044 70.074C97.993 70.074 96.867 67.498 98.465 64.698L103.369 56.164C105.004 53.365 102.424 52.422 96.647 59.652L90.871 69.715H87.057L88.449 67.304C86.507 68.953 84.539 70.077 82.729 70.077C80.805 70.077 79.641 69.062 79.461 67.608C77.644 69.097 75.755 70.077 74.229 70.077C71.554 70.077 70.358 68.096 71.181 65.722L70.9567 65.9353L70.9566 65.9354C68.4669 68.3042 66.6037 70.077 62.5 70.077C57.16 70.077 55.599 64.993 58.25 60.415L59.375 58.451C56.325 56.853 54.617 53.946 54.617 50.933C54.617 48.387 55.814 45.811 58.504 43.883L59.739 46.101C58.105 47.371 57.305 49.115 57.305 50.858C57.305 52.966 58.469 55.073 60.685 56.236L66.571 46.099C68.277 43.121 70.748 41.667 72.819 41.667C75.615 41.667 77.832 43.882 77.832 47.297C77.832 48.787 77.359 50.53 76.306 52.383C73.327 57.578 68.749 59.65 64.716 59.65C63.955 59.65 63.264 59.573 62.574 59.466L61.519 61.318C59.269 65.17 60.83 67.749 63.409 67.749C67.0843 67.749 69.1678 65.3318 71.8219 62.2527L71.969 62.082L72.223 61.79C72.494 61.863 72.791 62.045 73.051 62.278L76.954 55.542C78.55 52.779 81.386 51.182 83.419 51.182C85.89 51.182 87.525 53.398 87.38 54.996H89.523L83.419 65.676C82.548 67.168 83.02 67.748 83.855 67.748C85.528 67.748 88.18 65.241 90.903 62.081L91.157 61.789C91.2818 61.8468 91.4018 61.9144 91.516 61.991L97.554 51.546H101.334L99.917 54.015C101.805 52.053 103.513 51.181 105.148 51.181C107.255 51.181 108.817 53.253 107.182 56.123L101.733 65.676C100.862 67.168 101.334 67.748 102.169 67.748C103.841 67.748 106.492 65.241 109.217 62.081L109.471 61.789C109.586 61.8428 109.697 61.9053 109.802 61.976L115.83 51.546H119.608L112.233 64.406L112.186 64.4858L112.122 64.5923C111.632 65.4095 110.887 66.6534 111.761 67.022C112.487 67.348 114.74 65.859 117.647 63.172L124.33 51.546H128.109L117.754 69.276C120.732 68.001 123.384 65.676 126.509 62.081L126.763 61.79C126.882 61.8443 126.996 61.9078 127.105 61.98L128.725 59.21L130.577 55.977C132.758 52.199 135.009 51.037 137.916 51.037C141.478 51.037 143.584 54.776 141.296 58.738L137.736 64.878C139.625 64.841 141.733 63.931 143.439 62.079L143.694 61.787C143.864 61.8671 144.026 61.9642 144.176 62.077L150.264 51.544H154.043L152.626 54.013C154.516 52.051 156.221 51.18 157.857 51.18C159.962 51.18 161.528 53.251 159.892 56.121L154.442 65.674C153.571 67.166 154.042 67.746 154.878 67.746C156.55 67.746 159.203 65.239 161.925 62.079ZM280.81 26.215C278.52 29.956 276.195 31.736 274.598 31.736C273.763 31.736 273.291 31.156 274.161 29.666L279.428 20.473C281.463 16.949 285.495 17.858 283.642 21.273H283.677L280.81 26.215ZM238.519 31.736C240.08 31.736 242.333 30.028 244.623 26.434L247.564 21.273C249.416 17.858 245.384 16.949 243.35 20.473L238.082 29.666C237.212 31.156 237.683 31.736 238.519 31.736ZM204.706 40.164C203.909 41.581 202.636 41.364 202.636 40.348C202.636 39.367 203.508 38.241 206.415 37.114L204.706 40.164ZM216.151 8.923C215.096 8.923 213.861 9.757 212.734 11.683L207.286 21.128H208.049C217.676 23.358 222.145 8.923 216.151 8.923ZM290.398 25.78L290.143 26.07C287.423 29.23 284.769 31.737 283.096 31.737C282.261 31.737 281.789 31.157 282.659 29.666L295.448 7.54199H291.669L286.112 17.133C285.458 16.079 284.222 15.171 282.659 15.171C280.624 15.171 277.792 16.77 276.193 19.53L272.495 25.91C272.482 25.9025 272.469 25.8949 272.456 25.8872L272.431 25.8719C272.373 25.8369 272.315 25.8021 272.261 25.778L272.006 26.07C269.283 29.23 267.006 31.736 265.334 31.736C264.497 31.736 264.027 31.156 264.896 29.666L270.346 20.111C271.983 17.241 270.418 15.169 268.312 15.169C266.676 15.169 264.972 16.04 263.08 18.004L264.497 15.534H260.718L254.681 25.981C254.566 25.9042 254.446 25.8363 254.321 25.778L254.065 26.07C251.342 29.23 248.691 31.736 247.019 31.736C246.184 31.736 245.713 31.156 246.583 29.666L252.686 18.984H250.542C250.688 17.386 249.054 15.169 246.582 15.169C244.547 15.169 241.712 16.768 240.114 19.527L236.462 25.833L236.256 26.067C233.534 29.226 230.506 31.732 228.836 31.732C227.999 31.732 227.529 31.152 228.399 29.662L232.177 23.051C233.484 20.761 232.866 19.418 231.632 17.928L229.526 15.384C228.981 14.694 228.981 13.931 229.744 13.204L227.782 11.061C225.638 12.988 225.457 15.13 226.8 16.874L227.129 17.31L226.995 17.4994L226.995 17.4999C225.337 19.8416 223.139 22.9471 220.732 25.775C220.744 25.7927 220.757 25.8103 220.77 25.828C220.783 25.8448 220.796 25.8616 220.809 25.8783C220.865 25.9505 220.926 26.0225 220.99 26.095C217.877 29.675 215.231 31.99 212.26 33.257L217.055 25.047H213.277L212.878 25.702C210.88 29.226 208.59 31.733 205.648 31.733C203.068 31.733 202.598 29.154 204.848 25.303L205.903 23.451C206.611 23.5677 207.327 23.6283 208.045 23.632C221.488 23.632 227.991 5.64999 216.149 5.64999C214.077 5.64999 211.605 7.10399 209.899 10.082L204.014 20.217C201.798 19.056 200.636 16.949 200.636 14.842C200.636 13.099 201.436 11.354 203.068 10.084L201.835 7.86699C199.145 9.793 197.947 12.371 197.947 14.914C197.947 17.93 199.656 20.836 202.707 22.434L201.58 24.397C198.928 28.975 199.4 34.06 204.742 34.06C206.34 34.06 207.683 33.588 208.847 32.86L207.864 34.57C202.744 36.13 199.582 38.201 199.582 41.035C199.582 44.667 205.142 45.431 207.864 40.781L210.771 35.804C214.696 34.569 218.547 31.881 222.689 27.085C222.622 26.9594 222.543 26.8405 222.453 26.73C224.131 24.759 225.555 22.856 228.403 18.984L228.91 19.603C229.383 20.219 229.564 20.983 229.128 21.747L225.131 28.684C223.532 31.479 224.659 34.058 227.711 34.058C229.61 34.058 232.059 32.819 234.096 31.034C234.052 32.772 235.24 34.058 237.395 34.058C238.92 34.058 240.81 33.078 242.625 31.588C242.808 33.042 243.972 34.058 245.895 34.058C247.705 34.058 249.672 32.933 251.615 31.284L250.223 33.696H254.036L259.813 23.631C265.59 16.402 268.17 17.347 266.533 20.144L261.63 28.682C260.033 31.48 261.157 34.058 264.208 34.058C266.218 34.058 268.044 32.674 270.19 30.725C269.99 32.618 271.194 34.058 273.472 34.058C274.997 34.058 276.886 33.078 278.704 31.588C278.886 33.043 280.049 34.058 281.973 34.058C285.098 34.058 288.693 30.717 291.818 27.082C291.562 26.578 290.909 25.997 290.398 25.78ZM181.897 21.274C184.151 17.35 180.298 16.733 178.118 20.475L175.684 24.725C177.1 25.233 179.535 25.307 181.352 22.218L181.897 21.274ZM175.067 34.062C179.354 34.062 183.607 30.721 186.729 27.087C186.476 26.577 185.821 25.997 185.312 25.779L185.059 26.071C182.333 29.231 178.846 31.737 176.192 31.737C173.867 31.737 172.487 30.284 174.23 27.232L174.593 26.579C177.028 27.595 181.605 27.124 184.439 22.219L184.984 21.275C187.019 17.786 185.057 15.171 181.968 15.171C178.918 15.171 176.484 16.769 174.885 19.53L171.206 25.843C171.168 25.823 171.13 25.795 171.094 25.779L170.839 26.071C168.115 29.231 165.464 31.737 163.792 31.737C162.956 31.737 162.486 31.157 163.355 29.666L168.805 20.111C170.44 17.241 168.877 15.169 166.769 15.169C165.134 15.169 163.39 16.078 161.503 18.04L167.533 7.53999H163.755L153.099 26.03C152.964 25.9316 152.819 25.8472 152.667 25.778L152.412 26.069C149.687 29.23 147.036 31.736 145.364 31.736C144.529 31.736 144.057 31.156 144.927 29.666L153.029 15.532H156.119L157.209 13.715H154.084L157.644 7.53999H153.866L150.306 13.715H146.891L145.801 15.532H149.251L141.658 28.685C140.06 31.484 141.186 34.062 144.237 34.062C146.115 34.062 148.163 32.849 150.177 31.098L148.678 33.698H152.493L158.233 23.706C164.046 16.404 166.626 17.349 164.991 20.146L160.086 28.684C158.488 31.482 159.614 34.06 162.666 34.06C164.962 34.06 167.512 32.255 169.942 29.855C170.052 32.286 171.975 34.062 175.067 34.062ZM51.372 21.273C53.626 17.349 49.776 16.732 47.596 20.474L45.161 24.723C46.577 25.232 49.013 25.305 50.828 22.217L51.372 21.273ZM70.715 29.665L75.983 20.474C78.017 16.948 82.05 17.857 80.196 21.273L77.254 26.432C74.966 30.027 72.711 31.736 71.15 31.736C70.316 31.736 69.843 31.155 70.715 29.666V29.665ZM128.475 21.273C130.729 17.349 126.879 16.732 124.699 20.474L122.264 24.723C123.68 25.231 126.115 25.305 127.93 22.217L128.475 21.273ZM66.891 30C66.264 32.24 67.461 34.06 70.025 34.06C71.55 34.06 73.44 33.08 75.255 31.591C75.438 33.044 76.601 34.061 78.525 34.061C80.538 34.061 82.743 32.671 84.894 30.715C84.476 32.757 85.433 34.061 87.294 34.061C89.367 34.061 91.692 32.171 93.507 30.427C93.143 32.463 94.344 34.061 96.741 34.061C99.866 34.061 103.461 30.719 106.586 27.085C106.571 27.0559 106.551 27.0264 106.53 26.997C106.515 26.9759 106.499 26.9549 106.486 26.934C108.126 25.0263 109.614 23.0267 110.816 21.4118L110.816 21.4117L110.816 21.411L110.817 21.4107L110.817 21.41C111.145 20.9694 111.452 20.5575 111.734 20.184C111.233 21.502 110.991 23.1733 110.754 24.8116V24.8117C110.285 28.0483 109.835 31.156 107.446 31.156C106.176 31.156 105.666 29.774 105.666 29.774L103.303 31.009C103.303 31.009 103.993 34.061 107.445 34.061C107.769 34.061 108.063 34.0315 108.382 33.9996L108.499 33.988C108.518 33.988 108.536 33.9791 108.554 33.9703C108.572 33.9616 108.589 33.953 108.607 33.953C111.383 33.586 114.136 31.897 116.52 29.744C116.578 32.23 118.506 34.061 121.645 34.061C125.932 34.061 130.183 30.72 133.307 27.085C133.053 26.575 132.399 25.995 131.891 25.777L131.637 26.069C128.912 29.229 125.424 31.736 122.774 31.736C120.448 31.736 119.067 30.282 120.811 27.231L121.175 26.577C123.607 27.593 128.185 27.122 131.02 22.217L131.565 21.274C133.599 17.785 131.637 15.17 128.55 15.17C125.5 15.17 123.063 16.768 121.467 19.528L117.797 25.822C117.792 25.8201 117.786 25.8179 117.781 25.8155C117.776 25.8137 117.772 25.8117 117.768 25.8097L117.749 25.8002L117.749 25.8002C117.738 25.7947 117.728 25.7892 117.717 25.7846C117.709 25.7811 117.701 25.7781 117.693 25.776L117.439 26.067C116.11 27.6272 114.583 29.0075 112.897 30.173C113.368 28.7612 113.615 27.0528 113.881 25.2057C114.294 22.3479 114.755 19.1582 116.167 16.222L113.334 14.696C113.05 15.0857 112.705 15.5679 112.309 16.1202L112.309 16.1203C110.53 18.605 107.736 22.5068 104.941 25.776C104.96 25.8022 104.981 25.8281 105.003 25.8543C105.019 25.874 105.036 25.8938 105.051 25.914L104.916 26.067C102.192 29.227 99.54 31.734 97.868 31.734C97.033 31.734 96.561 31.154 97.432 29.664L105.497 15.529H101.718L94.998 27.263C92.128 29.879 89.913 31.332 89.184 31.005C88.3084 30.6355 89.0588 29.3874 89.55 28.5704L89.5514 28.5682L89.5604 28.5532C89.5805 28.5197 89.6002 28.487 89.6192 28.4551C89.6325 28.433 89.6454 28.4113 89.658 28.39L97.031 15.53H93.253L87.24 25.935L87.2059 25.914C87.1195 25.8609 87.0343 25.8085 86.953 25.774L86.699 26.064C83.974 29.224 81.323 31.731 79.651 31.731C78.816 31.731 78.344 31.151 79.215 29.661L85.318 18.979H83.174C83.32 17.381 81.686 15.163 79.214 15.163C77.18 15.163 74.346 16.763 72.748 19.523L68.918 26.135C68.7415 25.991 68.548 25.8691 68.342 25.772L68.088 26.062C65.364 29.222 62.23 31.729 59.578 31.729C57.254 31.729 55.872 30.276 57.615 27.225L61.502 20.469C63.682 16.727 67.533 17.344 65.279 21.267L64.734 22.212H67.824L68.368 21.267C70.402 17.78 68.441 15.163 65.354 15.163C62.302 15.163 60.22 16.763 58.624 19.523L54.868 25.966C54.7578 25.8919 54.6418 25.8271 54.521 25.772L54.267 26.062C51.543 29.222 48.32 31.729 45.669 31.729C43.343 31.729 41.962 30.276 43.706 27.225L44.069 26.571C46.503 27.589 51.081 27.116 53.915 22.213L54.46 21.267C56.494 17.781 54.532 15.164 51.444 15.164C48.394 15.164 45.958 16.762 44.361 19.524L40.401 26.316C38.038 30.349 40.074 34.054 44.541 34.054C47.87 34.054 50.554 32.039 53.329 29.437C53.231 32.074 55.187 34.054 58.45 34.054C61.538 34.06 64.25 32.326 66.891 30ZM33.07 10.809L30.019 16.04V16.041C33.87 15.968 36.015 15.132 37.465 12.408C39.355 8.847 35.83 6.052 33.07 10.809ZM25.951 33.26C23.698 33.26 21.918 32.752 20.501 31.954C21.155 31.19 21.808 30.245 22.391 29.265L28.747 18.257L29.764 18.365C38.63 20.22 35.105 33.26 25.951 33.26ZM35.288 17.7847C42.916 15.2042 43.4967 5.64999 35.977 5.64999C33.906 5.64999 31.436 7.103 29.729 10.082L19.556 27.666C19.1362 28.4212 18.6503 29.1376 18.104 29.807C15.488 26.212 16.251 20.836 19.92 18.473L18.393 16.547C10.473 21.597 12.799 36.164 26.023 36.164C37.3225 36.166 42.5525 22.6182 35.288 17.7847Z" fill="white"/>
</svg>
